<mxfile host="app.diagrams.net" agent="Mozilla/5.0 (Windows NT 10.0; Win64; x64) AppleWebKit/537.36 (KHTML, like Gecko) Chrome/134.0.0.0 Safari/537.36" version="26.1.1">
  <diagram name="PÃ¡gina-1" id="OgBPiq893gKOfCJQqvQN">
    <mxGraphModel dx="1194" dy="750" grid="1" gridSize="10" guides="1" tooltips="1" connect="1" arrows="1" fold="1" page="1" pageScale="1" pageWidth="827" pageHeight="1169" math="0" shadow="0">
      <root>
        <mxCell id="0" />
        <mxCell id="1" parent="0" />
        <mxCell id="_ZZTBhrSXdHvQE6JQ2D3-1" value="HOME" style="rounded=0;whiteSpace=wrap;html=1;" vertex="1" parent="1">
          <mxGeometry x="380" y="150" width="120" height="60" as="geometry" />
        </mxCell>
        <mxCell id="_ZZTBhrSXdHvQE6JQ2D3-2" value="FONES" style="rounded=0;whiteSpace=wrap;html=1;" vertex="1" parent="1">
          <mxGeometry x="509" y="230" width="120" height="60" as="geometry" />
        </mxCell>
        <mxCell id="_ZZTBhrSXdHvQE6JQ2D3-3" value="TELEMOVEIS" style="rounded=0;whiteSpace=wrap;html=1;" vertex="1" parent="1">
          <mxGeometry x="379" y="230" width="120" height="60" as="geometry" />
        </mxCell>
        <mxCell id="_ZZTBhrSXdHvQE6JQ2D3-4" value="COMPUTADORES" style="rounded=0;whiteSpace=wrap;html=1;" vertex="1" parent="1">
          <mxGeometry x="249" y="230" width="120" height="60" as="geometry" />
        </mxCell>
        <mxCell id="_ZZTBhrSXdHvQE6JQ2D3-5" value="ACESSORIOS" style="rounded=0;whiteSpace=wrap;html=1;" vertex="1" parent="1">
          <mxGeometry x="119" y="230" width="120" height="60" as="geometry" />
        </mxCell>
        <mxCell id="_ZZTBhrSXdHvQE6JQ2D3-7" value="LOGIN" style="rounded=0;whiteSpace=wrap;html=1;" vertex="1" parent="1">
          <mxGeometry x="641" y="230" width="120" height="60" as="geometry" />
        </mxCell>
        <mxCell id="_ZZTBhrSXdHvQE6JQ2D3-8" value="CRIAR CONTA" style="rounded=1;whiteSpace=wrap;html=1;" vertex="1" parent="1">
          <mxGeometry x="641" y="310" width="120" height="60" as="geometry" />
        </mxCell>
        <mxCell id="_ZZTBhrSXdHvQE6JQ2D3-9" value="INICIAR CONTA" style="rounded=1;whiteSpace=wrap;html=1;" vertex="1" parent="1">
          <mxGeometry x="641" y="380" width="120" height="60" as="geometry" />
        </mxCell>
        <mxCell id="_ZZTBhrSXdHvQE6JQ2D3-10" value="REPOR CONTA" style="rounded=1;whiteSpace=wrap;html=1;" vertex="1" parent="1">
          <mxGeometry x="641" y="450" width="120" height="60" as="geometry" />
        </mxCell>
      </root>
    </mxGraphModel>
  </diagram>
</mxfile>
